<?xml version="1.0" standalone="no"?>
<!DOCTYPE svg PUBLIC "-//W3C//DTD SVG 20010904//EN"
 "http://www.w3.org/TR/2001/REC-SVG-20010904/DTD/svg10.dtd">
<svg version="1.0" xmlns="http://www.w3.org/2000/svg"
 width="306.000000pt" height="346.000000pt" viewBox="0 0 306.000000 346.000000"
 preserveAspectRatio="xMidYMid meet">

<g transform="translate(0.000000,346.000000) scale(0.100000,-0.100000)"
fill="#000000" stroke="none">
<path d="M1390 3448 c0 -7 7 -105 15 -218 8 -113 15 -223 15 -245 l0 -40 -175
175 -175 175 -101 -101 -101 -101 182 -139 183 -139 -89 -5 -89 -6 -370 -218
c-203 -119 -375 -223 -382 -229 -6 -7 -77 -175 -157 -375 l-146 -362 148 -368
148 -367 70 -42 c38 -23 74 -46 81 -50 9 -6 4 -43 -23 -152 -28 -116 -32 -147
-22 -156 30 -28 529 -406 540 -410 7 -3 142 -21 300 -40 l288 -35 287 35 c159
19 294 37 301 40 11 4 510 382 540 410 10 9 6 40 -22 156 -27 109 -32 146 -23
152 7 4 43 27 81 50 l70 42 148 367 148 368 -146 362 c-80 200 -151 368 -157
375 -7 6 -178 110 -382 229 l-370 218 -89 6 -89 5 183 139 182 139 -101 101
-101 101 -175 -175 -175 -175 0 40 c0 22 7 132 15 245 8 113 15 211 15 218 0
9 -35 12 -140 12 -105 0 -140 -3 -140 -12z m932 -924 c194 -113 360 -214 369
-223 9 -9 76 -166 149 -348 l133 -333 -133 -332 c-73 -183 -137 -338 -142
-345 -5 -6 -37 -28 -70 -48 l-61 -36 -89 88 c-49 48 -102 104 -118 124 l-29
35 45 140 c24 76 43 146 41 154 -2 12 -65 24 -290 57 l-287 41 -104 96 -103
96 -103 0 -103 0 -103 -96 -104 -96 -287 -41 c-225 -33 -288 -45 -290 -57 -2
-8 17 -78 41 -154 l45 -140 -29 -35 c-16 -20 -69 -76 -118 -124 l-89 -88 -61
36 c-33 20 -65 42 -70 48 -5 7 -69 162 -142 345 l-133 332 133 333 c73 182
139 338 146 346 7 8 172 108 366 222 l353 207 442 1 441 1 354 -206z m-619
-1008 l102 -93 255 -38 c140 -20 257 -38 258 -40 2 -2 -15 -63 -38 -135 l-41
-132 134 -137 c129 -131 135 -139 155 -206 33 -107 53 -208 45 -215 -5 -4
-115 -89 -246 -189 l-237 -182 -280 -34 -280 -34 -280 34 -280 34 -237 182
c-131 100 -241 185 -246 189 -8 7 12 108 45 215 20 67 26 75 155 206 l134 137
-41 132 c-23 72 -40 133 -38 135 1 2 118 20 258 40 l255 38 102 93 103 94 70
0 70 0 103 -94z"/>
<path d="M631 1977 l-94 -52 -38 -87 -39 -88 39 -87 38 -88 94 -52 94 -51 125
0 125 0 94 51 94 52 38 88 39 87 -39 88 -38 87 -94 52 -94 51 -125 0 -125 0
-94 -51z m397 -70 c67 -38 76 -47 99 -99 l26 -58 -26 -57 c-23 -53 -32 -62
-99 -100 -73 -42 -73 -42 -178 -42 -105 0 -105 0 -178 42 -67 38 -76 47 -99
100 l-26 57 26 58 c23 52 32 61 99 99 73 42 73 42 178 42 105 0 105 0 178 -42z"/>
<path d="M790 1735 l0 -45 45 0 45 0 0 45 0 45 -45 0 -45 0 0 -45z"/>
<path d="M1991 1977 l-94 -52 -38 -87 -39 -88 39 -87 38 -88 94 -52 94 -51
125 0 125 0 94 51 94 52 38 88 39 87 -39 88 -38 87 -94 52 -94 51 -125 0 -125
0 -94 -51z m397 -70 c67 -38 76 -47 99 -99 l26 -58 -26 -57 c-23 -53 -32 -62
-99 -100 -73 -42 -73 -42 -178 -42 -105 0 -105 0 -178 42 -67 38 -76 47 -99
100 l-26 57 26 58 c23 52 32 61 99 99 73 42 73 42 178 42 105 0 105 0 178 -42z"/>
<path d="M2180 1735 l0 -45 45 0 45 0 0 45 0 45 -45 0 -45 0 0 -45z"/>
</g>
</svg>
